<svg width="64" height="64" viewBox="0 0 64 64" fill="none" xmlns="http://www.w3.org/2000/svg">
<g clip-path="url(#clip0_4_44)">
<path d="M32 0C14.1714 0 0 14.1714 0 32C0 49.8286 14.1714 64 32 64C49.8286 64 64 49.8286 64 32C64 14.1714 49.8286 0 32 0Z" fill="#F9A9A9"/>
<path d="M47 25.3333H38.4286C37.9234 25.3333 37.4389 25.1327 37.0817 24.7755C36.7245 24.4182 36.5238 23.9338 36.5238 23.4286C36.5238 22.9234 36.7245 22.4389 37.0817 22.0817C37.4389 21.7245 37.9234 21.5238 38.4286 21.5238H45.0952V14.8572C45.0952 14.352 45.2959 13.8675 45.6531 13.5103C46.0103 13.1531 46.4948 12.9524 47 12.9524C47.5052 12.9524 47.9897 13.1531 48.3469 13.5103C48.7041 13.8675 48.9048 14.352 48.9048 14.8572V23.4286C48.9048 23.9338 48.7041 24.4182 48.3469 24.7755C47.9897 25.1327 47.5052 25.3333 47 25.3333Z" fill="#E73131"/>
<path d="M32 51.0476C28.6559 51.0505 25.3699 50.1729 22.4725 48.5031C19.575 46.8333 17.1683 44.43 15.4943 41.535C13.8202 38.64 12.9378 35.3553 12.9359 32.0112C12.9339 28.667 13.8124 25.3813 15.4831 22.4843C17.1538 19.5874 19.5577 17.1813 22.4531 15.5081C25.3486 13.8348 28.6336 12.9534 31.9777 12.9524C35.3219 12.9514 38.6074 13.8308 41.5039 15.5023C44.4003 17.1738 46.8057 19.5784 48.4781 22.4743C48.7147 22.9102 48.7718 23.4213 48.6375 23.8987C48.5031 24.3762 48.1878 24.7824 47.7586 25.031C47.3294 25.2796 46.8202 25.3509 46.3391 25.2299C45.8581 25.1089 45.4433 24.805 45.1829 24.3829C43.3302 21.1897 40.38 18.7788 36.8817 17.5992C33.3835 16.4197 29.5757 16.5519 26.1678 17.9713C22.7598 19.3907 19.9839 22.0004 18.3572 25.3144C16.7304 28.6285 16.3638 32.4208 17.3255 35.9851C18.2872 39.5494 20.5117 42.6426 23.5846 44.6886C26.6576 46.7346 30.3695 47.5938 34.0289 47.1063C37.6883 46.6188 41.0458 44.8177 43.4759 42.0386C45.906 39.2594 47.2431 35.6918 47.2381 32C47.2381 31.4948 47.4388 31.0103 47.796 30.6531C48.1532 30.2959 48.6377 30.0952 49.1429 30.0952C49.6481 30.0952 50.1325 30.2959 50.4898 30.6531C50.847 31.0103 51.0476 31.4948 51.0476 32C51.0426 37.0502 49.0342 41.8921 45.4632 45.4631C41.8921 49.0342 37.0502 51.0426 32 51.0476Z" fill="#E73131"/>
</g>
<defs>
<clipPath id="clip0_4_44">
<rect width="64" height="64" fill="white"/>
</clipPath>
</defs>
</svg>
