<svg width="80" height="80" viewBox="0 0 80 80" fill="none" xmlns="http://www.w3.org/2000/svg">
<g opacity="0.7">
<path d="M36.5 45.6662L31.75 40.9162C31.0834 40.2495 30.3056 39.9162 29.4167 39.9162C28.5278 39.9162 27.75 40.2495 27.0834 40.9162C26.4167 41.5828 26.0834 42.3751 26.0834 43.2928C26.0834 44.2106 26.4167 45.0017 27.0834 45.6662L34.1667 52.8329C34.8334 53.4995 35.6111 53.8328 36.5 53.8328C37.3889 53.8328 38.1667 53.4995 38.8334 52.8329L53 38.6662C53.6667 37.9995 54 37.2084 54 36.2928C54 35.3773 53.6667 34.5851 53 33.9162C52.3334 33.2473 51.5422 32.914 50.6267 32.9162C49.7111 32.9184 48.9189 33.2517 48.25 33.9162L36.5 45.6662ZM28.2934 70.9595C24.6534 69.3751 21.4867 67.2362 18.7934 64.5429C16.1 61.8495 13.9611 58.6828 12.3767 55.0429C10.7922 51.4029 10 47.4995 10 43.3328C10 39.1662 10.7922 35.264 12.3767 31.6262C13.9611 27.9884 16.0989 24.8217 18.79 22.1262C21.4811 19.4306 24.6478 17.2917 28.29 15.7095C31.9322 14.1273 35.8356 13.3351 40 13.3328C44.1645 13.3306 48.0678 14.1228 51.71 15.7095C55.3522 17.2962 58.5189 19.4351 61.21 22.1262C63.9011 24.8173 66.04 27.984 67.6267 31.6262C69.2134 35.2684 70.0045 39.1706 70 43.3328C69.9956 47.4951 69.2045 51.3984 67.6267 55.0429C66.0489 58.6873 63.91 61.854 61.21 64.5429C58.51 67.2317 55.3434 69.3706 51.71 70.9595C48.0767 72.5484 44.1734 73.3395 40 73.3328C35.8267 73.3262 31.9245 72.5351 28.2934 70.9595ZM6.83335 24.3328C6.22224 23.7217 5.91669 22.944 5.91669 21.9995C5.91669 21.0551 6.22224 20.2773 6.83335 19.6662L16.3334 10.1662C16.9445 9.55507 17.7222 9.24951 18.6667 9.24951C19.6111 9.24951 20.3889 9.55507 21 10.1662C21.6111 10.7773 21.9167 11.5551 21.9167 12.4995C21.9167 13.444 21.6111 14.2217 21 14.8328L11.5 24.3328C10.8889 24.944 10.1111 25.2495 9.16669 25.2495C8.22224 25.2495 7.44446 24.944 6.83335 24.3328ZM73.1667 24.3328C72.5556 24.944 71.7778 25.2495 70.8334 25.2495C69.8889 25.2495 69.1111 24.944 68.5 24.3328L59 14.8328C58.3889 14.2217 58.0834 13.444 58.0834 12.4995C58.0834 11.5551 58.3889 10.7773 59 10.1662C59.6111 9.55507 60.3889 9.24951 61.3334 9.24951C62.2778 9.24951 63.0556 9.55507 63.6667 10.1662L73.1667 19.6662C73.7778 20.2773 74.0834 21.0551 74.0834 21.9995C74.0834 22.944 73.7778 23.7217 73.1667 24.3328ZM40 66.6662C46.5 66.6662 52.0145 64.4028 56.5434 59.8762C61.0722 55.3495 63.3356 49.8351 63.3334 43.3328C63.3311 36.8306 61.0678 31.3173 56.5434 26.7928C52.0189 22.2684 46.5045 20.004 40 19.9995C33.4956 19.9951 27.9822 22.2595 23.46 26.7928C18.9378 31.3262 16.6734 36.8395 16.6667 43.3328C16.66 49.8262 18.9245 55.3406 23.46 59.8762C27.9956 64.4117 33.5089 66.6751 40 66.6662Z" fill="white"/>
</g>
</svg>
